<svg xmlns="http://www.w3.org/2000/svg" viewBox="0 0 114 30"><path d="M3.632 28.796a3.843 3.843 0 002.312-.918c1.315-1.201 2.709-3.468 4.182-6.8 1.473-3.332 2.901-7.514 4.284-12.546.181-.77.272-1.315.272-1.632 0-.499-.17-.827-.51-.986-.318-.159-.907-.26-1.768-.306l.17-.68c.703.068 1.757.102 3.162.102.294 0 .544-.011.748-.034.59-.045 1.212-.068 1.87-.068 1.043 0 2.198.023 3.468.068l1.938.034c2.244 0 4.046-.034 5.406-.102l-.17.68c-.839.045-1.462.136-1.87.272-.386.136-.703.397-.952.782-.227.385-.453 1.009-.68 1.87l-4.488 16.864c-.204.861-.306 1.417-.306 1.666 0 .476.159.793.476.952.34.159.952.26 1.836.306l-.136.68c-1.27-.068-3.128-.102-5.576-.102-2.335 0-4.114.034-5.338.102l.17-.68c.793-.045 1.394-.136 1.802-.272.408-.136.725-.397.952-.782.25-.408.487-1.031.714-1.87l4.488-16.864c.159-.612.238-1.122.238-1.53 0-.544-.148-.907-.442-1.088-.295-.204-.76-.306-1.394-.306h-.476c-.59 0-1.054.08-1.394.238-.34.159-.624.442-.85.85-.227.408-.454 1.02-.68 1.836-1.224 4.51-2.573 8.568-4.046 12.172-1.473 3.604-3.003 6.131-4.59 7.582-.884.793-1.904 1.19-3.06 1.19-.997 0-1.78-.272-2.346-.816-.567-.567-.85-1.27-.85-2.108 0-.861.295-1.587.884-2.176.567-.59 1.303-.884 2.21-.884.725 0 1.292.181 1.7.544.408.363.612.85.612 1.462 0 .748-.238 1.417-.714 2.006a3.763 3.763 0 01-1.836 1.19.78.78 0 01.238.068c.113.023.227.034.34.034zm37.395-15.164c0 1.881-1.054 3.525-3.162 4.93-2.108 1.405-4.556 2.493-7.344 3.264a13.28 13.28 0 00-.204 2.312c0 1.201.216 2.051.646 2.55.454.499 1.11.748 1.972.748.703 0 1.496-.215 2.38-.646.884-.453 1.746-1.167 2.584-2.142l.544.272c-.816 1.27-1.915 2.346-3.298 3.23-1.36.884-2.89 1.326-4.59 1.326-1.564 0-2.844-.42-3.842-1.258-.997-.839-1.496-2.017-1.496-3.536 0-2.017.544-4.103 1.632-6.256 1.088-2.153 2.573-3.933 4.454-5.338 1.882-1.428 3.944-2.142 6.188-2.142 1.043 0 1.893.238 2.55.714.658.453.986 1.11.986 1.972zm-4.284-2.04c-.657 0-1.405.465-2.244 1.394-.838.93-1.61 2.142-2.312 3.638a20.838 20.838 0 00-1.564 4.556c1.61-.703 2.856-1.462 3.74-2.278a9.368 9.368 0 002.142-2.788 7.633 7.633 0 00.782-3.4c0-.43-.045-.725-.136-.884a.441.441 0 00-.408-.238zm-5.406-5.576c0-.861.284-1.553.85-2.074a3.03 3.03 0 012.074-.782c.703 0 1.247.204 1.632.612.386.408.578.952.578 1.632 0 .884-.294 1.587-.884 2.108a3.11 3.11 0 01-2.074.748c-.725 0-1.27-.204-1.632-.612-.362-.408-.544-.952-.544-1.632zm7.718 0c0-.861.284-1.553.85-2.074a3.03 3.03 0 012.074-.782c.703 0 1.247.204 1.632.612.386.408.578.952.578 1.632 0 .884-.294 1.587-.884 2.108-.566.499-1.246.748-2.04.748-.725 0-1.28-.204-1.666-.612-.362-.408-.544-.952-.544-1.632zm8.094 20.876c1.836 0 3.332-1.167 4.488-3.502l.544.17c-1.723 3.944-4.34 5.916-7.854 5.916-1.292 0-2.335-.25-3.128-.748-.794-.499-1.19-1.235-1.19-2.21 0-.748.192-1.428.578-2.04a6.982 6.982 0 011.496-1.666c.59-.499 1.371-1.088 2.346-1.768 1.02-.703 1.824-1.303 2.414-1.802a6.96 6.96 0 001.53-1.734 4.045 4.045 0 00.612-2.176c0-.567-.148-.997-.442-1.292-.272-.317-.68-.476-1.224-.476-.816 0-1.632.317-2.448.952-.794.635-1.53 1.643-2.21 3.026l-.51-.17c.816-2.108 1.926-3.683 3.332-4.726 1.405-1.065 3.026-1.598 4.862-1.598 1.156 0 2.096.215 2.822.646.748.408 1.122 1.043 1.122 1.904 0 1.02-.374 1.95-1.122 2.788-.748.816-1.87 1.802-3.366 2.958-1.496 1.156-2.618 2.153-3.366 2.992-.748.816-1.122 1.734-1.122 2.754 0 1.201.612 1.802 1.836 1.802zm22.9-15.946c1.02 0 1.79.295 2.311.884.544.567.816 1.292.816 2.176 0 .861-.26 1.575-.782 2.142-.52.567-1.212.85-2.074.85-.702 0-1.246-.181-1.632-.544-.362-.385-.544-.861-.544-1.428a3.122 3.122 0 01.646-1.802c.431-.544.964-.986 1.598-1.326a.43.43 0 00-.238-.204.604.604 0 00-.272-.068c-.566 0-1.054.17-1.462.51-.317.272-.589.635-.816 1.088-.204.43-.453 1.031-.748 1.802a23.52 23.52 0 01-.884 2.176 5.896 5.896 0 01-1.122 1.53c-.476.476-1.076.805-1.802.986 3.808.09 5.712 1.337 5.712 3.74 0 .295-.034.635-.102 1.02l-.374 1.904a3.424 3.424 0 00-.102.748c0 .25.046.43.136.544.114.09.272.136.476.136.771 0 1.474-.895 2.108-2.686l.578-1.632h.646l-.85 2.482c-.43 1.27-1.076 2.176-1.938 2.72a5.41 5.41 0 01-2.856.782c-.929 0-1.654-.227-2.176-.68-.498-.453-.748-1.11-.748-1.972 0-.453.046-.873.136-1.258l.442-2.006c.114-.567.17-1.009.17-1.326 0-.68-.215-1.19-.646-1.53-.43-.363-1.144-.612-2.142-.748L59.066 29h-4.794l4.318-14.688c.16-.476.238-.85.238-1.122 0-.385-.192-.578-.578-.578-.43 0-.827.204-1.19.612-.34.408-.69 1.1-1.054 2.074l-.646 1.734h-.646l.918-2.584c.454-1.247 1.054-2.142 1.802-2.686.771-.544 1.678-.816 2.72-.816 1.882 0 2.822.907 2.822 2.72 0 .59-.102 1.27-.306 2.04l-1.02 3.808c.93-.113 1.69-.397 2.278-.85.59-.453 1.032-.975 1.326-1.564.318-.59.646-1.349.986-2.278.25-.748.5-1.371.748-1.87.25-.499.556-.907.918-1.224.68-.521 1.394-.782 2.142-.782zm21.76 12.444h.647l-.918 2.584c-.43 1.247-1.054 2.142-1.87 2.686-.793.544-1.689.816-2.686.816-.612 0-1.133-.102-1.564-.306-.43-.204-.748-.487-.952-.85a3.075 3.075 0 01-.306-1.394c0-.521.113-1.258.34-2.21l.918-3.502c-.884 2.13-1.734 3.797-2.55 4.998-.816 1.201-1.643 2.051-2.482 2.55-.839.476-1.78.714-2.822.714-1.02 0-1.79-.238-2.312-.714-.499-.476-.748-1.167-.748-2.074 0-.703.147-1.485.442-2.346l3.298-10.03c.136-.408.204-.737.204-.986 0-.476-.215-.714-.646-.714-.363 0-.725.193-1.088.578-.34.385-.691 1.088-1.054 2.108l-.612 1.632h-.646l.85-2.482c.816-2.335 2.335-3.502 4.556-3.502 2.063 0 3.094.94 3.094 2.822 0 .703-.159 1.564-.476 2.584l-3.06 9.18c-.204.612-.306 1.1-.306 1.462 0 .521.215.782.646.782.68 0 1.485-.669 2.414-2.006.93-1.337 1.859-3.105 2.788-5.304a59.859 59.859 0 002.516-7.14l.51-1.904c2.017-.045 3.66-.204 4.93-.476l-4.25 15.164c-.136.476-.204.85-.204 1.122 0 .385.193.578.578.578.43 0 .816-.204 1.156-.612.34-.408.68-1.1 1.02-2.074l.646-1.734zm19.788 0h.646l-.918 2.584c-.431 1.247-1.054 2.142-1.87 2.686-.793.544-1.689.816-2.686.816-.612 0-1.133-.102-1.564-.306-.431-.204-.748-.487-.952-.85a3.075 3.075 0 01-.306-1.394c0-.521.113-1.258.34-2.21l.918-3.502c-.884 2.13-1.734 3.797-2.55 4.998-.816 1.201-1.643 2.051-2.482 2.55-.839.476-1.78.714-2.822.714-1.02 0-1.79-.238-2.312-.714-.499-.476-.748-1.167-.748-2.074 0-.703.147-1.485.442-2.346l3.298-10.03c.136-.408.204-.737.204-.986 0-.476-.215-.714-.646-.714-.363 0-.725.193-1.088.578-.34.385-.691 1.088-1.054 2.108l-.612 1.632h-.646l.85-2.482c.816-2.335 2.335-3.502 4.556-3.502 2.063 0 3.094.94 3.094 2.822 0 .703-.159 1.564-.476 2.584l-3.06 9.18c-.204.612-.306 1.1-.306 1.462 0 .521.215.782.646.782.68 0 1.485-.669 2.414-2.006.929-1.337 1.859-3.105 2.788-5.304a59.806 59.806 0 002.516-7.14l.51-1.904c2.017-.045 3.661-.204 4.93-.476l-4.25 15.164c-.136.476-.204.85-.204 1.122 0 .385.193.578.578.578.431 0 .816-.204 1.156-.612.34-.408.68-1.1 1.02-2.074l.646-1.734zm-7.82-17.51c.204.113.499.215.884.306.385.068.793.102 1.224.102 1.428-.023 2.777-.408 4.046-1.156 1.292-.748 2.369-1.768 3.23-3.06l.51.34c-1.02 1.564-2.244 2.731-3.672 3.502-1.405.748-2.833 1.122-4.284 1.122-1.428 0-2.618-.283-3.57-.85-.929-.567-1.394-1.371-1.394-2.414 0-.861.295-1.575.884-2.142s1.337-.85 2.244-.85c.68 0 1.213.17 1.598.51.408.34.612.839.612 1.496 0 .68-.215 1.303-.646 1.87a3.609 3.609 0 01-1.666 1.224z"/></svg>