<svg xmlns="http://www.w3.org/2000/svg" viewBox="0 0 149 32"><path d="M18.872.928c1.428 0 2.959.023 4.59.068l2.38.034c2.517 0 4.387-.034 5.61-.102l-.17.68c-.838.045-1.462.136-1.87.272-.385.136-.702.397-.951.782-.227.385-.454 1.009-.68 1.87l-4.488 16.864c-.204.861-.306 1.417-.306 1.666 0 .476.158.793.476.952.34.159.951.26 1.835.306l-.135.68c-1.18-.068-3.038-.102-5.576-.102-2.29 0-4.07.034-5.338.102l.135-.68c.816-.045 1.428-.136 1.837-.272.407-.136.725-.397.951-.782.25-.385.488-1.009.715-1.87l4.488-16.864c.203-.725.305-1.28.305-1.666 0-.499-.17-.827-.51-.986-.34-.181-.94-.272-1.802-.272h-3.433c-.794 0-1.394.08-1.802.238-.386.136-.703.408-.952.816-.227.385-.454 1.009-.68 1.87L9.012 21.396c-.204.861-.306 1.417-.306 1.666 0 .476.16.793.476.952.34.159.952.26 1.836.306l-.136.68c-1.246-.068-3.026-.102-5.338-.102-2.47 0-4.318.034-5.542.102l.17-.68c.794-.045 1.383-.136 1.768-.272.408-.136.726-.397.952-.782.25-.408.488-1.031.714-1.87L8.094 4.532c.182-.77.272-1.315.272-1.632 0-.499-.17-.827-.51-.986-.317-.159-.906-.26-1.768-.306l.17-.68c1.156.068 3.004.102 5.542.102l2.313-.034c1.632-.045 3.218-.068 4.76-.068zm23.671 6.018c1.383 0 2.425.453 3.128 1.36.725.884 1.088 2.176 1.088 3.876 0 1.859-.42 3.83-1.258 5.916-.816 2.063-1.995 3.808-3.536 5.236s-3.332 2.142-5.372 2.142a4.996 4.996 0 01-1.768-.306c-.544-.204-.975-.499-1.292-.884l-.918 3.264c-.136.476-.204.884-.204 1.224 0 .635.227 1.065.68 1.292.453.227 1.167.351 2.142.374l-.204.714-.782-.034c-2.312-.068-3.842-.102-4.59-.102-.748 0-2.346.045-4.794.136l.204-.714c.816 0 1.405-.147 1.768-.442.363-.295.657-.85.884-1.666l6.154-22.066a21.966 21.966 0 01-2.176 3.808c-.816 1.11-1.813 2.267-2.992 3.468l-.374-.442a76.894 76.894 0 002.482-2.822c.657-.816 1.315-1.802 1.972-2.958.68-1.179 1.349-2.607 2.006-4.284l.102-.408c1.836-.136 3.525-.453 5.066-.952l-2.924 10.37c.816-1.768 1.677-3.06 2.584-3.876.907-.816 1.881-1.224 2.924-1.224zM35.267 24.49c1.065 0 2.097-.68 3.094-2.04 1.02-1.383 1.847-3.083 2.482-5.1.635-2.04.952-3.967.952-5.78 0-1.065-.102-1.802-.306-2.21-.181-.408-.453-.612-.816-.612-.68 0-1.45.657-2.312 1.972-.861 1.315-1.655 2.98-2.38 4.998l-2.278 7.99c.43.521.952.782 1.564.782zM63.191 9.632c0 1.881-1.054 3.525-3.162 4.93-2.108 1.405-4.556 2.493-7.344 3.264a13.28 13.28 0 00-.204 2.312c0 1.201.216 2.051.646 2.55.454.499 1.111.748 1.972.748.703 0 1.496-.215 2.38-.646.884-.453 1.746-1.167 2.584-2.142l.544.272c-.816 1.27-1.915 2.346-3.298 3.23-1.36.884-2.89 1.326-4.59 1.326-1.564 0-2.844-.42-3.842-1.258-.997-.839-1.496-2.017-1.496-3.536 0-2.017.544-4.103 1.632-6.256 1.088-2.153 2.573-3.933 4.454-5.338 1.882-1.428 3.944-2.142 6.188-2.142 1.043 0 1.893.238 2.55.714.658.453.986 1.11.986 1.972zm-4.284-2.04c-.657 0-1.405.465-2.244 1.394-.838.93-1.609 2.142-2.312 3.638a20.833 20.833 0 00-1.564 4.556c1.61-.703 2.856-1.462 3.74-2.278a9.368 9.368 0 002.142-2.788 7.635 7.635 0 00.782-3.4c0-.43-.045-.725-.136-.884a.441.441 0 00-.408-.238zM86.653 19.39h.646l-.918 2.584c-.43 1.224-1.054 2.12-1.87 2.686-.793.544-1.689.816-2.686.816-.635 0-1.179-.102-1.632-.306-.453-.204-.782-.487-.986-.85-.227-.385-.34-.861-.34-1.428 0-.612.113-1.337.34-2.176l2.822-10.472-9.01 14.926h-.646L70.74 10.108c-.567 3.944-1.27 7.22-2.108 9.826-.816 2.584-1.882 4.273-3.196 5.066-.544.317-1.179.476-1.904.476-.93 0-1.632-.25-2.108-.748-.499-.499-.748-1.133-.748-1.904 0-.861.283-1.553.85-2.074.544-.544 1.212-.816 2.006-.816.657 0 1.167.17 1.53.51.385.34.578.793.578 1.36 0 .59-.204 1.156-.612 1.7-.408.544-.93.986-1.564 1.326.045.045.158.068.34.068a3.354 3.354 0 001.326-.408c.997-.612 1.836-1.813 2.516-3.604a35.074 35.074 0 001.598-5.746c.385-2.017.793-4.477 1.224-7.378l-.034-.34c1.881-.045 3.388-.204 4.522-.476l1.088 11.968 6.562-10.846.17-.646c1.995-.045 3.65-.204 4.964-.476L83.457 22.11c-.136.499-.204.861-.204 1.088 0 .408.192.612.578.612.408 0 .782-.204 1.122-.612.362-.408.714-1.1 1.054-2.074l.646-1.734zm19.753 0h.646l-.918 2.584c-.431 1.247-1.054 2.142-1.87 2.686a4.641 4.641 0 01-2.686.816c-.612 0-1.134-.102-1.564-.306-.431-.204-.748-.487-.952-.85a3.075 3.075 0 01-.306-1.394c0-.521.113-1.258.34-2.21l.918-3.502c-.884 2.13-1.734 3.797-2.55 4.998-.816 1.201-1.644 2.051-2.482 2.55-.839.476-1.78.714-2.822.714-1.02 0-1.791-.238-2.312-.714-.499-.476-.748-1.167-.748-2.074 0-.703.147-1.485.442-2.346l3.298-10.03c.136-.408.204-.737.204-.986 0-.476-.216-.714-.646-.714-.363 0-.726.193-1.088.578-.34.385-.692 1.088-1.054 2.108l-.612 1.632h-.646l.85-2.482c.816-2.335 2.334-3.502 4.556-3.502 2.062 0 3.094.94 3.094 2.822 0 .703-.159 1.564-.476 2.584l-3.06 9.18c-.204.612-.306 1.1-.306 1.462 0 .521.215.782.646.782.68 0 1.484-.669 2.414-2.006.929-1.337 1.858-3.105 2.788-5.304a59.912 59.912 0 002.516-7.14l.51-1.904c2.017-.045 3.66-.204 4.93-.476l-4.25 15.164c-.136.476-.204.85-.204 1.122 0 .385.192.578.578.578.43 0 .816-.204 1.156-.612.34-.408.68-1.1 1.02-2.074l.646-1.734zm15.131-12.444c1.496 0 2.244 1.031 2.244 3.094 0 2.04-.657 4.477-1.972 7.31-1.315 2.81-2.89 5.315-4.726 7.514a23.524 23.524 0 01-3.842 3.672c-1.383 1.065-2.811 1.847-4.284 2.346-.907.34-1.711.51-2.414.51-.725 0-1.292-.17-1.7-.51-.431-.34-.646-.805-.646-1.394 0-.612.227-1.122.68-1.53.431-.385.986-.578 1.666-.578 1.337 0 2.55.782 3.638 2.346a16.67 16.67 0 004.42-3.128l-2.652-16.252c-.113-.635-.238-1.054-.374-1.258-.113-.227-.283-.34-.51-.34-.249 0-.487.17-.714.51-.227.34-.521 1.009-.884 2.006l-.612 1.666h-.646l.85-2.482c.453-1.292 1.02-2.199 1.7-2.72.703-.521 1.53-.782 2.482-.782.975 0 1.734.272 2.278.816.544.544.918 1.496 1.122 2.856l1.564 11.662a33.266 33.266 0 002.584-4.352c.725-1.496 1.258-2.924 1.598-4.284-.929-.499-1.689-1.133-2.278-1.904-.589-.77-.873-1.598-.85-2.482 0-.703.204-1.258.612-1.666.408-.43.963-.646 1.666-.646zm26.038 12.444h.646l-.918 2.584c-.431 1.224-1.054 2.12-1.87 2.686a4.641 4.641 0 01-2.686.816c-.635 0-1.179-.102-1.632-.306-.454-.204-.782-.487-.986-.85-.227-.385-.34-.861-.34-1.428 0-.612.113-1.337.34-2.176l2.822-10.472-9.01 14.926h-.646l-1.632-15.062c-.567 3.944-1.27 7.22-2.108 9.826-.816 2.584-1.882 4.273-3.196 5.066-.544.317-1.179.476-1.904.476-.93 0-1.632-.25-2.108-.748-.499-.499-.748-1.133-.748-1.904 0-.861.283-1.553.85-2.074.544-.544 1.212-.816 2.006-.816.657 0 1.167.17 1.53.51.385.34.578.793.578 1.36 0 .59-.204 1.156-.612 1.7a4.7 4.7 0 01-1.564 1.326c.045.045.158.068.34.068a3.354 3.354 0 001.326-.408c.997-.612 1.836-1.813 2.516-3.604a35.144 35.144 0 001.598-5.746c.385-2.017.793-4.477 1.224-7.378l-.034-.34c1.881-.045 3.388-.204 4.522-.476l1.088 11.968 6.562-10.846.17-.646c1.994-.045 3.649-.204 4.964-.476l-4.284 15.164c-.136.499-.204.861-.204 1.088 0 .408.192.612.578.612.408 0 .782-.204 1.122-.612.362-.408.714-1.1 1.054-2.074l.646-1.734z"/></svg>