<svg xmlns="http://www.w3.org/2000/svg" viewBox="0 0 156 30"><path d="M1.1 24.3h116.7v.5H1.1v-.5zm5.8-5.4c-.2.7-.2 1.1-.2 1.3 0 .4.1.6.4.7.3.1.7.2 1.4.2l-.1.5c-1-.1-2.4-.1-4.2-.1s-3.2 0-4.1.1l.1-.5c.6 0 1.1-.1 1.4-.2.3-.1.6-.3.7-.6.2-.3.4-.8.5-1.4L6.2 6c.1-.6.2-1 .2-1.2 0-.4-.1-.7-.4-.8-.2-.1-.7-.2-1.3-.2l.1-.5h4.1c1.7 0 3.1 0 4.3-.1l-.2.6c-.6 0-1.1.1-1.4.2-.3.1-.5.3-.7.6-.2.3-.3.8-.5 1.4L6.9 18.9zm18.3-1.4l-.6 1.9c-.7 1.7-1.9 2.6-3.6 2.6-1 0-1.7-.3-2.1-.9-.2-.3-.3-.7-.3-1.2 0-.6.1-1.2.4-2.1l2.3-7c.2-.5.2-.8.2-1.1 0-.4-.2-.6-.5-.6-.5 0-1.2.5-1.9 1.6s-1.5 2.5-2.2 4.2c-.7 1.7-1.4 3.5-1.9 5.4l-.3 1.3H11l3.1-11.2c.1-.3.2-.6.2-.8 0-.3-.1-.5-.4-.5-.3 0-.6.2-.9.5-.2.3-.5.8-.8 1.6l-.5 1.3h-.5l.7-2c.3-1 .8-1.6 1.3-2.1s1.2-.6 2-.6c1.5 0 2.2.7 2.2 2.1 0 .5-.1 1-.2 1.5l-.8 3.1c.7-1.8 1.4-3.1 2-4.1.7-1 1.3-1.7 2-2.1.7-.4 1.4-.6 2.2-.6 1.6 0 2.3.7 2.3 2.1 0 .5-.1 1.1-.3 1.8l-2.5 7.7c-.1.3-.2.6-.2.8 0 .4.2.5.5.5s.5-.1.8-.4c.3-.3.6-.8.8-1.6l.5-1.2h.7zm2.5 3.8c.3.1.6.2 1 .2.7 0 1.2-.2 1.6-.6.4-.4.6-.9.6-1.6 0-.6-.1-1.1-.4-1.7-.2-.6-.6-1.3-1.1-2-.1-.1-.3-.4-.6-.9s-.6-1-.8-1.5c-.2-.5-.2-1-.2-1.4 0-1.1.4-2 1.2-2.8.8-.7 2-1.1 3.5-1.1 1.1 0 2.1.2 2.8.6.8.4 1.1 1.1 1.1 2.1 0 .5-.1.9-.4 1.3s-.7.6-1.2.6c-.4 0-.8-.2-1-.5-.3-.3-.4-.7-.4-1.2 0-.4.1-.8.2-1.2.2-.4.3-.7.6-1-.2-.1-.5-.2-.9-.2-.6 0-1.1.2-1.5.6-.3.4-.5.9-.5 1.6 0 .5.1.9.3 1.3.2.4.5.9.9 1.6l.4.5c.6.9.9 1.7 1.2 2.3.2.6.4 1.2.4 1.8 0 .8-.2 1.4-.6 2.1-.4.6-1 1.1-1.7 1.4-.7.3-1.6.5-2.6.5-1.2 0-2.3-.2-3.1-.7-.8-.5-1.2-1.3-1.2-2.3 0-.5.1-1 .4-1.3.3-.4.6-.5 1.1-.5.5 0 .8.2 1.1.6.3.4.4.9.4 1.5 0 .4 0 .7-.1 1-.2.1-.3.5-.5.9zm12.8-1.8c-.1.2-.1.3-.1.5 0 .3.1.5.2.6.1.1.3.2.6.2.4 0 .7-.2 1.1-.5.4-.4.7-.9 1-1.7l.4-1.1h.5l-.6 1.5c-.7 2-2 3.1-3.9 3.1-.9 0-1.6-.2-2-.7-.4-.5-.6-1.1-.6-1.9 0-.5.1-1 .2-1.6l2.6-9.2h-2.3l.1-.5h2.4l1.1-3.9c1.5 0 2.7-.1 3.8-.4l-1.2 4.2h2.9l-.1.5h-3l-3.1 10.9zm16.8-.8c-.5 1.4-1 2.1-1.6 2.1-.3 0-.5-.2-.5-.6 0-.2 0-.4.1-.7l3.4-11.6c-1.1.2-2.4.4-3.8.4l-.4 1.3c-.1-.6-.2-1-.5-1.2-.3-.3-.7-.4-1.1-.4-1.2 0-2.5.6-3.7 1.7-1.3 1.2-2.3 2.6-3.1 4.3-.8 1.7-1.2 3.3-1.2 4.9 0 1 .2 1.8.7 2.4.5.6 1.2.8 2.2.8.9 0 1.7-.3 2.4-.9.7-.6 1.4-1.5 2-2.8-.2.6-.2 1.1-.2 1.5 0 .6.1 1 .4 1.3.4.5 1 .8 1.9.8.7 0 1.4-.2 2-.6.6-.4 1.1-1.1 1.5-2.1l.7-1.9H58l-.7 1.3zm-3-8.2l-1.1 4.1.1-.6c-.3 1.4-.8 2.6-1.2 3.6-.5 1-.9 1.8-1.4 2.3-.5.5-.9.8-1.2.8-.3 0-.5-.1-.6-.4-.1-.3-.2-.7-.2-1.2 0-1.5.3-3 .8-4.6.5-1.6 1.2-2.9 1.9-4 .8-1.1 1.4-1.6 2-1.6.3 0 .5.1.7.3.2.2.2.6.2 1v.3z"/><path d="M72.2 7.2c-.3-.3-.7-.4-1.2-.4s-1 .1-1.5.4c-.5.3-.9.6-1.2 1-.6-.2-1.3-.3-2-.3-1.3 0-2.5.3-3.5.8s-1.7 1.2-2.2 2c-.5.8-.7 1.6-.7 2.4 0 1 .4 1.7 1.1 2.2.7.5 1.7.7 2.8.7h.2c-1.6.7-2.8 1.3-3.6 1.8-.7.5-1.1 1.1-1.1 1.7 0 .4.1.8.4 1.1.3.3.7.5 1.1.6l3.7 1.1c.5.1.8.3 1 .4.2.1.3.3.3.6 0 .5-.2.9-.7 1.4-.5.4-1.1.8-1.8 1-.7.3-1.4.4-2 .4s-1.1-.1-1.5-.4c-.4-.2-.5-.6-.5-1.1 0-.8.5-1.5 1.6-2.1l-.1-.4c-1.2.1-2.3.4-3.3.8s-1.5 1-1.5 1.6c0 .6.5 1.1 1.4 1.4s2 .5 3.4.5 2.7-.2 3.9-.6c1.2-.4 2.2-1 2.9-1.7.7-.7 1.1-1.5 1.1-2.3 0-.7-.3-1.3-.8-1.7-.5-.4-1.2-.8-2.2-1.1l-2.2-.7c-.4-.1-.7-.2-.9-.3-.2-.1-.3-.3-.3-.4 0-.2.2-.5.6-.8.4-.3 1.1-.6 2.1-1 1-.2 1.9-.5 2.6-1.1.7-.5 1.3-1.2 1.7-1.9.4-.7.6-1.5.6-2.2 0-.6-.1-1.1-.4-1.5-.2-.4-.6-.7-1-1 .4-.5.9-.9 1.6-1.2-.2.4-.2.8-.2 1.1 0 .5.1.8.4 1.1.3.3.6.4.9.4.3 0 .6-.1.9-.4.2-.3.4-.6.4-1.1.1-.1 0-.5-.3-.8zM66 13.9c-.4 1.2-1 1.7-1.8 1.7-.3 0-.5-.1-.6-.3-.1-.2-.2-.6-.2-1.2 0-.8.1-1.7.3-2.5.2-.9.5-1.7.8-2.3.4-.6.8-.9 1.3-.9.3 0 .5.1.7.4.1.3.2.7.2 1.2-.1 1.4-.3 2.7-.7 3.9z"/><path d="M81.5 7.9c.7 0 1.2.2 1.5.6.4.4.6.9.6 1.5 0 .7-.2 1.4-.7 1.9-.5.5-1 .8-1.7.8-.5 0-.9-.1-1.2-.4-.3-.3-.4-.7-.4-1.2 0-.6.2-1.2.6-1.6.4-.5.9-.8 1.5-1h-.2c-.1 0-.1-.1-.2-.1-.9 0-1.8.6-2.7 1.9-.9 1.3-1.9 3.6-2.8 6.9l-1.1 4.4H71l3.2-11.2c.1-.3.1-.5.1-.8 0-.3-.1-.5-.4-.5-.3 0-.6.2-.9.5-.3.3-.5.8-.8 1.6l-.5 1.3h-.5l.7-2c.6-1.8 1.8-2.7 3.6-2.7 1.3 0 2 .7 2 2.1 0 .5-.1 1-.2 1.5l-.2.8c.6-1.6 1.3-2.8 2-3.5.6-.5 1.4-.8 2.4-.8zm12.9 10.8c-.5 1.4-1 2.1-1.6 2.1-.3 0-.5-.2-.5-.6 0-.2 0-.4.1-.7l3.4-11.6c-1.1.2-2.4.4-3.8.4l-.4 1.3c-.1-.6-.2-1-.5-1.2-.3-.3-.6-.4-1.1-.4-1.2 0-2.5.6-3.7 1.7-1.3 1.2-2.3 2.6-3.1 4.3-.8 1.7-1.2 3.3-1.2 4.9 0 1 .2 1.8.7 2.4.5.6 1.2.8 2.2.8.9 0 1.7-.3 2.4-.9.7-.6 1.4-1.5 2-2.8-.2.6-.3 1.1-.3 1.5 0 .6.1 1 .4 1.3.4.5 1 .8 1.9.8.7 0 1.4-.2 2-.6.6-.4 1.1-1.1 1.5-2.1l.7-1.9H95l-.6 1.3zm-3-8.2l-1.1 4.1.1-.6c-.3 1.4-.8 2.6-1.2 3.6-.5 1-.9 1.8-1.4 2.3-.5.5-.9.8-1.2.8-.3 0-.5-.1-.6-.4-.1-.3-.2-.7-.2-1.2 0-1.5.3-3 .8-4.6.5-1.6 1.2-2.9 1.9-4 .8-1.1 1.4-1.6 2-1.6.3 0 .5.1.6.3.2.2.2.6.2 1 .1.1.1.3.1.3zm25.7 7l-.6 1.9c-.6 1.8-1.8 2.7-3.5 2.7-1 0-1.7-.3-2.1-.9-.2-.3-.3-.7-.3-1.2 0-.6.1-1.2.4-2l2.3-7c.1-.5.2-.8.2-1 0-.3-.1-.5-.4-.5-.7 0-1.6.9-2.6 2.6-1 1.7-2 4.2-3 7.4v-.1l-.7 2.4h-3.7l3.2-10.8c.1-.5.2-.8.2-1.1 0-.3-.1-.5-.4-.5-.8 0-1.7.9-2.7 2.7-1 1.8-1.9 4.2-2.8 7l-.7 2.6h-3.7l3.2-11.2c.1-.3.1-.5.1-.8 0-.4-.2-.5-.5-.5s-.6.2-.9.5c-.2.3-.5.8-.8 1.6l-.5 1.3h-.5l.7-2c.3-1 .8-1.6 1.4-2.1.6-.4 1.3-.6 2.1-.6.7 0 1.3.2 1.6.6.3.4.5.9.5 1.5 0 .5-.1 1-.2 1.6l-.6 2.2c.8-2.1 1.7-3.6 2.6-4.5.9-.9 2-1.4 3.2-1.4 1.4 0 2.1.7 2.1 2 0 .5-.1 1.1-.3 1.9l-.5 1.7c.9-2.1 1.7-3.5 2.6-4.3.9-.8 1.9-1.2 3.1-1.2.7 0 1.3.2 1.6.5.3.4.5.9.5 1.5s-.1 1.2-.4 1.9l-2.5 7.7c-.1.3-.2.6-.2.8 0 .4.2.5.5.5.6 0 1.1-.7 1.6-2.1l.5-1.2h.9z"/><defs><radialGradient id="a" cx="90.501" cy="244.813" r="45.423" gradientTransform="matrix(.6435 -.7654 .5056 .4251 -49.813 1.261)" gradientUnits="userSpaceOnUse"><stop offset=".073" stop-color="#eacc7b"/><stop offset=".184" stop-color="#ecaa59"/><stop offset=".307" stop-color="#ef802e"/><stop offset=".358" stop-color="#ef6d3a"/><stop offset=".46" stop-color="#f04b50"/><stop offset=".516" stop-color="#f03e58"/><stop offset=".689" stop-color="#db359e"/><stop offset=".724" stop-color="#ce37a4"/><stop offset=".789" stop-color="#ac3cb4"/><stop offset=".877" stop-color="#7544cf"/><stop offset=".98" stop-color="#2b4ff2"/></radialGradient></defs><path fill="url(#a)" d="M149.5 30h-17c-3.6 0-6.5-3-6.5-6.5v-17c0-3.6 3-6.5 6.5-6.5h17c3.6 0 6.5 3 6.5 6.5v17c0 3.5-3 6.5-6.5 6.5z"/><path fill="#fff" d="M141 5.9h4.5c1.1 0 1.7.3 2.1.4.5.2.9.5 1.3.8.4.4.7.8.8 1.3.1.4.3 1 .4 2.1v9c0 1.1-.3 1.7-.4 2.1-.2.5-.5.9-.8 1.3-.4.4-.8.7-1.3.8-.4.1-1 .3-2.1.4h-9c-1.1 0-1.7-.3-2.1-.4-.5-.2-.9-.5-1.3-.8-.4-.4-.7-.8-.8-1.3-.1-.4-.3-1-.4-2.1v-9c0-1.1.3-1.7.4-2.1.2-.5.5-.9.8-1.3.4-.4.8-.7 1.3-.8.4-.1 1-.3 2.1-.4h4.5m0-2h-4.5c-1.1 0-2 .3-2.7.5s-1.4.7-2 1.3-1 1.2-1.3 2c-.3.7-.5 1.5-.5 2.7v9c0 1.1.3 2 .5 2.7.3.7.7 1.4 1.3 2 .6.6 1.2 1 2 1.3.7.3 1.5.5 2.7.5h9c1.2 0 2-.3 2.7-.5.7-.3 1.4-.7 2-1.3.6-.6 1-1.2 1.3-2 .3-.7.5-1.5.5-2.7v-9c0-1.1-.3-2-.5-2.7-.3-.7-.7-1.4-1.3-2s-1.2-1-2-1.3c-.7-.3-1.5-.5-2.7-.5H141z"/><path fill="#fff" d="M141 9.1c-3.3 0-5.9 2.6-5.9 5.9s2.6 5.9 5.9 5.9 5.9-2.6 5.9-5.9-2.6-5.9-5.9-5.9zm0 9.8c-2.2 0-3.9-1.8-3.9-3.9s1.8-3.9 3.9-3.9 3.9 1.8 3.9 3.9-1.7 3.9-3.9 3.9z"/><circle cx="146.9" cy="9.1" r="1.3" fill="#fff"/></svg>
