<svg xmlns="http://www.w3.org/2000/svg" viewBox="0 0 35 35"><path d="M0 11.6V1.9C0 1.4.2.9.5.6.9.2 1.4 0 1.9 0h9.7c.6 0 .9.3.9.9V4c0 .6-.3.9-.9.9H5v6.6c0 .6-.3.9-.9.9H.9c-.6.1-.9-.2-.9-.8zM22.5.9c0-.6.3-.9.9-.9h9.7c.5 0 1 .2 1.3.5.4.4.6.9.6 1.4v9.7c0 .6-.3.9-.9.9H31c-.6 0-.9-.3-.9-.9V5h-6.6c-.6 0-.9-.3-.9-.9V.9zm11.6 21.6c.6 0 .9.3.9.9v9.7c0 .5-.2 1-.5 1.3-.4.4-.8.5-1.3.5h-9.7c-.6 0-.9-.3-.9-.9v-3.1c0-.6.3-.9.9-.9H30v-6.6c0-.6.3-.9.9-.9h3.2zM12.5 34.1c0 .6-.3.9-.9.9H1.9c-.5 0-1-.2-1.3-.5-.4-.4-.6-.9-.6-1.4v-9.7c0-.6.3-.9.9-.9H4c.6 0 .9.3.9.9V30h6.6c.6 0 .9.3.9.9v3.2z"/></svg>