<svg xmlns="http://www.w3.org/2000/svg" viewBox="0 0 173 34"><defs/><path d="M24.613 2.928c-.748 1.95-1.473 4.556-2.176 7.82h-.748c.181-1.043.272-1.938.272-2.686 0-1.043-.193-1.904-.578-2.584-.793-1.473-2.13-2.21-4.012-2.21-1.813 0-3.547.805-5.202 2.414-1.632 1.587-2.947 3.66-3.944 6.222a21.644 21.644 0 00-1.462 7.82c0 2.244.397 3.933 1.19 5.066.816 1.11 1.95 1.666 3.4 1.666.861 0 1.757-.193 2.686-.578a7.535 7.535 0 002.414-1.666 10.89 10.89 0 001.53-2.108c.453-.793.963-1.881 1.53-3.264h.748c-1.065 3.921-1.734 6.641-2.006 8.16h-.748a8.55 8.55 0 00.102-1.156c0-.59-.147-.884-.442-.884-.181 0-.408.102-.68.306-1.043.703-2.085 1.247-3.128 1.632-1.043.385-2.221.578-3.536.578-3.037 0-5.315-.725-6.834-2.176C1.47 23.85.711 21.764.711 19.044c0-2.675.703-5.293 2.108-7.854A17.392 17.392 0 018.701 4.9c2.493-1.632 5.247-2.448 8.262-2.448 1.27 0 2.267.193 2.992.578.748.385 1.44.93 2.074 1.632.181.204.351.306.51.306.408 0 .861-.68 1.36-2.04h.714zm25.284 18.564l-.85 2.482c-.816 2.335-2.346 3.502-4.59 3.502-1.314 0-2.221-.408-2.72-1.224-.25-.385-.374-.895-.374-1.53 0-.748.17-1.632.51-2.652l3.06-9.18c.182-.59.272-1.043.272-1.36 0-.453-.158-.68-.476-.68-.93 0-2.051 1.122-3.366 3.366-1.292 2.221-2.595 5.463-3.91 9.724v-.102L36.57 27h-4.862l4.148-14.11c.182-.59.272-1.054.272-1.394 0-.43-.181-.646-.544-.646-1.02 0-2.176 1.179-3.468 3.536-1.27 2.357-2.47 5.429-3.604 9.214v-.034L27.627 27h-4.794l4.148-14.688c.114-.385.17-.714.17-.986 0-.476-.204-.714-.612-.714-.408 0-.782.215-1.122.646-.317.408-.657 1.088-1.02 2.04l-.646 1.734h-.646l.918-2.584c.454-1.247 1.077-2.142 1.87-2.686a4.797 4.797 0 012.72-.816c.975 0 1.678.25 2.108.748.43.499.646 1.156.646 1.972 0 .59-.102 1.27-.306 2.04l-.748 2.924c1.11-2.765 2.244-4.737 3.4-5.916 1.179-1.179 2.584-1.768 4.216-1.768 1.79 0 2.686.884 2.686 2.652 0 .635-.136 1.462-.408 2.482l-.612 2.176c1.134-2.697 2.278-4.59 3.434-5.678 1.179-1.088 2.528-1.632 4.046-1.632.952 0 1.655.238 2.108.714.454.476.68 1.122.68 1.938 0 .748-.158 1.575-.476 2.482l-3.332 10.03c-.136.43-.204.76-.204.986 0 .476.216.714.646.714.77 0 1.485-.895 2.142-2.686l.612-1.632h.646zm17.875 0h.646l-.85 2.482c-.453 1.27-1.088 2.176-1.904 2.72a4.614 4.614 0 01-2.584.782c-1.178 0-2.017-.351-2.516-1.054-.317-.408-.476-.975-.476-1.7 0-.59.102-1.258.306-2.006-.77 1.677-1.632 2.89-2.584 3.638-.929.748-1.96 1.122-3.094 1.122-1.246 0-2.198-.363-2.856-1.088-.634-.748-.952-1.78-.952-3.094 0-2.017.533-4.148 1.598-6.392 1.088-2.267 2.46-4.16 4.114-5.678 1.655-1.519 3.276-2.278 4.862-2.278.612 0 1.1.181 1.462.544.386.363.612.907.68 1.632l.476-1.666c1.814-.023 3.457-.193 4.93-.51L64.576 24.11c-.113.385-.17.703-.17.952 0 .499.216.748.646.748.794 0 1.496-.895 2.108-2.686l.612-1.632zm-4.522-9.044c.023-.113.034-.283.034-.51 0-.567-.102-.997-.306-1.292-.181-.295-.464-.442-.85-.442-.77 0-1.654.691-2.652 2.074-.974 1.383-1.813 3.117-2.516 5.202-.68 2.085-1.02 4.103-1.02 6.052 0 .748.068 1.292.204 1.632.159.317.408.476.748.476.499 0 1.043-.34 1.632-1.02.612-.703 1.213-1.7 1.802-2.992.612-1.315 1.145-2.867 1.598-4.658l-.17.816 1.496-5.338zm24.613 8.942h.646l-.918 2.584c-.43 1.247-1.054 2.142-1.87 2.686-.793.544-1.688.816-2.686.816-.612 0-1.133-.102-1.564-.306-.43-.204-.748-.487-.952-.85a3.075 3.075 0 01-.306-1.394c0-.521.114-1.258.34-2.21l1.156-4.522h-4.726L74.705 27h-4.794l4.148-14.688c.136-.544.204-.907.204-1.088 0-.408-.192-.612-.578-.612-.43 0-.816.204-1.156.612-.34.408-.691 1.1-1.054 2.074l-.646 1.734h-.646l.918-2.584c.431-1.247 1.02-2.142 1.768-2.686s1.644-.816 2.686-.816c1.02 0 1.757.26 2.21.782.454.499.68 1.167.68 2.006 0 .544-.102 1.201-.306 1.972l-.986 3.808h4.76l2.074-8.092c2.018-.045 3.661-.204 4.93-.476l-4.25 15.164c-.136.476-.204.85-.204 1.122 0 .385.193.578.578.578.431 0 .816-.204 1.156-.612.34-.408.68-1.1 1.02-2.074l.646-1.734zM95.508.412c3.264 1.065 5.882 2.765 7.854 5.1 1.972 2.312 2.958 5.055 2.958 8.228 0 2.176-.431 4.33-1.292 6.46-.862 2.108-2.131 3.853-3.808 5.236-1.678 1.36-3.65 2.04-5.916 2.04-1.678 0-3.015-.453-4.012-1.36-.998-.907-1.496-2.323-1.496-4.25 0-1.813.408-3.717 1.224-5.712.838-2.017 2.017-3.706 3.536-5.066 1.541-1.36 3.298-2.04 5.27-2.04.476 0 .884.068 1.224.204-.34-1.927-1.009-3.559-2.006-4.896-.998-1.337-2.312-2.46-3.944-3.366l.408-.578zm.408 26.384c.929 0 1.813-.737 2.652-2.21.838-1.496 1.507-3.343 2.006-5.542.521-2.221.782-4.34.782-6.358 0-.907-.057-1.836-.17-2.788a3.77 3.77 0 00-1.054-.17c-1.02 0-1.95.782-2.788 2.346-.816 1.541-1.451 3.468-1.904 5.78-.454 2.29-.68 4.465-.68 6.528 0 .907.09 1.541.272 1.904.181.34.476.51.884.51zm27.765-5.304h.646l-.85 2.482c-.454 1.27-1.088 2.176-1.904 2.72a4.616 4.616 0 01-2.584.782c-1.179 0-2.018-.351-2.516-1.054-.318-.408-.476-.975-.476-1.7 0-.59.102-1.258.306-2.006-.771 1.677-1.632 2.89-2.584 3.638-.93.748-1.961 1.122-3.094 1.122-1.247 0-2.199-.363-2.856-1.088-.635-.748-.952-1.78-.952-3.094 0-2.017.532-4.148 1.598-6.392 1.088-2.267 2.459-4.16 4.114-5.678 1.654-1.519 3.275-2.278 4.862-2.278.612 0 1.099.181 1.462.544.385.363.612.907.68 1.632l.476-1.666c1.813-.023 3.456-.193 4.93-.51l-4.454 15.164c-.114.385-.17.703-.17.952 0 .499.215.748.646.748.793 0 1.496-.895 2.108-2.686l.612-1.632zm-4.522-9.044a2.88 2.88 0 00.034-.51c0-.567-.102-.997-.306-1.292-.182-.295-.465-.442-.85-.442-.771 0-1.655.691-2.652 2.074-.975 1.383-1.814 3.117-2.516 5.202-.68 2.085-1.02 4.103-1.02 6.052 0 .748.068 1.292.204 1.632.158.317.408.476.748.476.498 0 1.042-.34 1.632-1.02.612-.703 1.212-1.7 1.802-2.992.612-1.315 1.144-2.867 1.598-4.658l-.17.816 1.496-5.338zm20.737-3.502c1.382 0 2.425.453 3.128 1.36.725.884 1.088 2.176 1.088 3.876 0 1.859-.42 3.83-1.258 5.916-.816 2.063-1.995 3.808-3.536 5.236-1.542 1.428-3.332 2.142-5.372 2.142a4.994 4.994 0 01-1.768-.306c-.544-.204-.975-.499-1.292-.884l-.918 3.264c-.136.476-.204.884-.204 1.224 0 .635.226 1.065.68 1.292.453.227 1.167.351 2.142.374l-.204.714-.782-.034c-2.312-.068-3.842-.102-4.59-.102-.748 0-2.346.045-4.794.136l.204-.714c.816 0 1.405-.147 1.768-.442.362-.295.657-.85.884-1.666l6.154-22.066a21.991 21.991 0 01-2.176 3.808c-.816 1.11-1.814 2.267-2.992 3.468l-.374-.442a77.955 77.955 0 002.482-2.822c.657-.816 1.314-1.802 1.972-2.958.68-1.179 1.348-2.607 2.006-4.284l.102-.408c1.836-.136 3.524-.453 5.066-.952l-2.924 10.37c.816-1.768 1.677-3.06 2.584-3.876.906-.816 1.881-1.224 2.924-1.224zM132.62 26.49c1.065 0 2.096-.68 3.094-2.04 1.02-1.383 1.847-3.083 2.482-5.1.634-2.04.952-3.967.952-5.78 0-1.065-.102-1.802-.306-2.21-.182-.408-.454-.612-.816-.612-.68 0-1.451.657-2.312 1.972-.862 1.315-1.655 2.98-2.38 4.998l-2.278 7.99c.43.521.952.782 1.564.782zm39.586-4.998l-.85 2.482c-.816 2.335-2.346 3.502-4.59 3.502-1.315 0-2.221-.408-2.72-1.224-.249-.385-.374-.895-.374-1.53 0-.748.17-1.632.51-2.652l3.06-9.18c.181-.59.272-1.043.272-1.36 0-.453-.159-.68-.476-.68-.929 0-2.051 1.122-3.366 3.366-1.292 2.221-2.595 5.463-3.91 9.724v-.102L158.878 27h-4.862l4.148-14.11c.181-.59.272-1.054.272-1.394 0-.43-.181-.646-.544-.646-1.02 0-2.176 1.179-3.468 3.536-1.269 2.357-2.471 5.429-3.604 9.214v-.034L149.936 27h-4.794l4.148-14.688c.113-.385.17-.714.17-.986 0-.476-.204-.714-.612-.714-.408 0-.782.215-1.122.646-.317.408-.657 1.088-1.02 2.04l-.646 1.734h-.646l.918-2.584c.453-1.247 1.077-2.142 1.87-2.686a4.798 4.798 0 012.72-.816c.975 0 1.677.25 2.108.748.431.499.646 1.156.646 1.972 0 .59-.102 1.27-.306 2.04l-.748 2.924c1.111-2.765 2.244-4.737 3.4-5.916 1.179-1.179 2.584-1.768 4.216-1.768 1.791 0 2.686.884 2.686 2.652 0 .635-.136 1.462-.408 2.482l-.612 2.176c1.133-2.697 2.278-4.59 3.434-5.678 1.179-1.088 2.527-1.632 4.046-1.632.952 0 1.655.238 2.108.714.453.476.68 1.122.68 1.938 0 .748-.159 1.575-.476 2.482l-3.332 10.03c-.136.43-.204.76-.204.986 0 .476.215.714.646.714.771 0 1.485-.895 2.142-2.686l.612-1.632h.646z"/></svg>