<svg xmlns="http://www.w3.org/2000/svg" viewBox="0 0 64 64" xml:space="preserve"><radialGradient id="SVGID_1_" cx="-18.471" cy="-117.904" r="96.902" gradientTransform="matrix(.6435 -.7654 -.5056 -.4251 -34.496 12.674)" gradientUnits="userSpaceOnUse"><stop offset=".073" stop-color="#eacc7b"/><stop offset=".184" stop-color="#ecaa59"/><stop offset=".307" stop-color="#ef802e"/><stop offset=".358" stop-color="#ef6d3a"/><stop offset=".46" stop-color="#f04b50"/><stop offset=".516" stop-color="#f03e58"/><stop offset=".689" stop-color="#db359e"/><stop offset=".724" stop-color="#ce37a4"/><stop offset=".789" stop-color="#ac3cb4"/><stop offset=".877" stop-color="#7544cf"/><stop offset=".98" stop-color="#2b4ff2"/></radialGradient><path fill="url(#SVGID_1_)" d="M50.1 64H13.9C6.3 64 0 57.7 0 50.1V13.9C0 6.3 6.3 0 13.9 0h36.2C57.7 0 64 6.3 64 13.9v36.2C64 57.7 57.7 64 50.1 64z"/><path d="M32 12.5c6.4 0 7.1 0 9.6.1 2.4.1 3.6.6 4.5.8 1.1.4 1.9 1 2.8 1.8.8.8 1.4 1.7 1.8 2.8.3.8.7 2.1.8 4.5V32c0 6.4 0 7.1-.1 9.6-.1 2.4-.6 3.6-.8 4.5-.4 1.1-1 1.9-1.8 2.8-.8.8-1.7 1.4-2.8 1.8-.8.3-2.1.7-4.5.8H32c-6.4 0-7.1 0-9.6-.1-2.4-.1-3.6-.6-4.5-.8-1.1-.4-1.9-1-2.8-1.8-.8-.8-1.4-1.7-1.8-2.8-.3-.8-.7-2.1-.8-4.5V32c0-6.4 0-7.1.1-9.6.1-2.4.6-3.6.8-4.5.4-1.1 1-1.9 1.8-2.8.8-.8 1.7-1.4 2.8-1.8.8-.3 2.1-.7 4.5-.8H32m0-4.2c-6.4 0-7.2 0-9.7.1-2.5.1-4.2.6-5.7 1.1s-2.9 1.4-4.2 2.8-2.1 2.6-2.8 4.2c-.6 1.5-1 3.2-1.1 5.7-.1 2.5-.1 3.3-.1 9.7s0 7.2.1 9.7c.1 2.5.6 4.2 1.1 5.7.6 1.5 1.4 2.9 2.8 4.2 1.3 1.3 2.6 2.1 4.2 2.8 1.5.6 3.2 1 5.7 1.1 2.5.1 3.3.1 9.7.1s7.2 0 9.7-.1c2.5-.1 4.2-.6 5.7-1.1 1.5-.6 2.9-1.4 4.2-2.8 1.3-1.3 2.1-2.6 2.8-4.2.6-1.5 1-3.2 1.1-5.7.1-2.5.1-3.3.1-9.7s0-7.2-.1-9.7c-.1-2.5-.6-4.2-1.1-5.7-.6-1.5-1.4-2.9-2.8-4.2s-2.6-2.1-4.2-2.8c-1.5-.6-3.2-1-5.7-1.1-2.5-.1-3.3-.1-9.7-.1z" fill="#fff"/><path d="M32 19.5c-7 0-12.5 5.6-12.5 12.5S25 44.5 32 44.5 44.5 39 44.5 32 39 19.5 32 19.5zm0 20.8c-4.6 0-8.3-3.8-8.3-8.3s3.8-8.3 8.3-8.3 8.3 3.8 8.3 8.3-3.7 8.3-8.3 8.3z" fill="#fff"/><circle cx="44.5" cy="19.5" r="2.8" fill="#fff"/></svg>
